<?xml version="1.0" encoding="utf-8"?>
<!-- Generator: Adobe Illustrator 26.0.3, SVG Export Plug-In . SVG Version: 6.00 Build 0)  -->
<svg version="1.1" id="Слой_1" xmlns="http://www.w3.org/2000/svg" xmlns:xlink="http://www.w3.org/1999/xlink" x="0px" y="0px"
	 viewBox="0 0 511.5 80.9" style="enable-background:new 0 0 511.5 80.9;" xml:space="preserve">
	<style type="text/css">
	g {fill:#FFFFFF;}
	</style>
<g>
	<path d="M38.3,0.1L38.3,0.1C17,1.2,0,18.9,0,40.4C0,62,17,79.7,38.3,80.7v0.1h103.2v-24H42.3v-0.1h-2c-9,0-16.3-7.3-16.3-16.3
		c0-9,7.3-16.3,16.3-16.3l2-0.1h99.2V0H40.3L38.3,0.1z"/>
	<path d="M224.6,40.5c0,9-7.3,16.3-16.3,16.3h-58.7v24h58.7c22.2,0,40.3-18.1,40.3-40.3c0-9,7.3-16.3,16.3-16.3h58.7v-24h-58.7
		C242.7,0.2,224.6,18.3,224.6,40.5z"/>
	<path d="M471.2,0.2H331.6v80.7h24V24.2h54v56.7h24V24.2h37.6c9,0,16.3,7.3,16.3,16.3v40.3h24V40.5C511.5,18.3,493.4,0.2,471.2,0.2z
		"/>
</g>
</svg>
