<?xml version="1.0" encoding="utf-8"?>
<!-- Generator: Adobe Illustrator 26.0.3, SVG Export Plug-In . SVG Version: 6.00 Build 0)  -->
<svg version="1.1" id="Слой_1" xmlns="http://www.w3.org/2000/svg" xmlns:xlink="http://www.w3.org/1999/xlink" x="0px" y="0px"
	 viewBox="0 0 320 334.4" style="enable-background:new 0 0 320 334.4;" xml:space="preserve">
<style type="text/css">
	.st0{fill:#FFFFFF;}
</style>
<path class="st0" d="M238.2,120.8c-5.5-2.6-7.9-9.2-5.3-14.7c2.6-5.5,9.2-7.9,14.7-5.3l21.2,10l42.4-90.2l-21.2-10
	c-51.5-24.3-112.1-5.4-141.3,41.9V6.9H49v216.7c0,6.1-5,11.1-11.1,11.1h-11v99.7H38c61.2,0,110.7-49.6,110.7-110.7V169
	c10.9,17.6,26.9,32.4,47,41.9c5.5,2.6,7.9,9.2,5.3,14.7c-2.6,5.5-9.2,7.9-14.7,5.3l-21.2-10l-42.4,90.2l21.2,10
	c55.3,26,121.3,2.3,147.3-53C317.1,212.8,293.5,146.8,238.2,120.8z"/>
</svg>
