<?xml version="1.0" encoding="utf-8"?>
<!-- Generator: Adobe Illustrator 26.0.3, SVG Export Plug-In . SVG Version: 6.00 Build 0)  -->
<svg version="1.1" id="Слой_1" xmlns="http://www.w3.org/2000/svg" xmlns:xlink="http://www.w3.org/1999/xlink" x="0px" y="0px"
	 viewBox="0 0 100 100" style="enable-background:new 0 0 100 100;" xml:space="preserve">
<style type="text/css">
	.st0{fill:#FFFFFF;}
	.st1{fill:#00E02A;}
	.st2{fill:#020203;}
	.st3{fill:#F18535;}
</style>
<g>
	<rect x="0" y="0" class="st0" width="100" height="100"/>
	<rect x="50" y="25" class="st1" width="25" height="25"/>
	<g>
		<rect x="0" y="50" class="st2" width="25" height="25"/>
		<rect x="75" y="75" class="st2" width="25" height="25"/>
		<polygon class="st2" points="75,0 50,0 25,0 0,0 0,25 25,25 25,50 50,50 50,25 75,25 		"/>
	</g>
	<g>
		<rect x="0" y="25" class="st3" width="25" height="25"/>
		<rect x="0" y="75" class="st3" width="25" height="25"/>
		<rect x="50" y="75" class="st3" width="25" height="25"/>
		<polygon class="st3" points="75,25 75,50 75,75 100,75 100,50 100,25 		"/>
	</g>
</g>
</svg>
