<?xml version="1.0" encoding="utf-8"?>
<!-- Generator: Adobe Illustrator 26.0.3, SVG Export Plug-In . SVG Version: 6.00 Build 0)  -->
<svg version="1.1" id="Слой_1" xmlns="http://www.w3.org/2000/svg" xmlns:xlink="http://www.w3.org/1999/xlink" x="0px" y="0px"
	 viewBox="0 0 625 75" style="enable-background:new 0 0 625 75;" xml:space="preserve">
<style type="text/css">
	.st0{fill:#FFFFFF;}
</style>
<g>
	<polygon class="st0" points="25,0 0,0 0,25 25,25 50,25 50,50 75,50 75,25 75,0 50,0 	"/>
	<rect y="50" class="st0" width="25" height="25"/>
	<polygon class="st0" points="90,50 90,75 115,75 115,50 115,25 90,25 	"/>
	<rect x="115" class="st0" width="25" height="25"/>
	<polygon class="st0" points="140,50 140,75 165,75 165,50 165,25 140,25 	"/>
	<polygon class="st0" points="272,50 272,75 297,75 297,50 297,25 272,25 	"/>
	<rect x="297" class="st0" width="25" height="25"/>
	<polygon class="st0" points="322,50 322,75 347,75 347,50 347,25 322,25 	"/>
	<polygon class="st0" points="550,50 550,75 575,75 575,50 575,25 550,25 	"/>
	<rect x="575" class="st0" width="25" height="25"/>
	<polygon class="st0" points="600,25 600,50 600,75 625,75 625,50 625,25 	"/>
	<polygon class="st0" points="508,25 483,25 483,0 458,0 458,25 458,50 458,75 483,75 483,50 508,50 508,75 533,75 533,50 533,25 
		533,0 508,0 	"/>
	<polygon class="st0" points="390,0 365,0 365,25 365,50 365,75 390,75 390,50 415,50 415,25 390,25 	"/>
	<rect x="415" class="st0" width="25" height="25"/>
	<rect x="415" y="50" class="st0" width="25" height="25"/>
	<polygon class="st0" points="207,0 182,0 182,25 207,25 232,25 232,50 257,50 257,25 257,0 232,0 	"/>
	<rect x="182" y="50" class="st0" width="25" height="25"/>
</g>
</svg>
