<?xml version="1.0" encoding="utf-8"?>
<!-- Generator: Adobe Illustrator 26.0.3, SVG Export Plug-In . SVG Version: 6.00 Build 0)  -->
<svg version="1.1" id="Слой_1" xmlns="http://www.w3.org/2000/svg" xmlns:xlink="http://www.w3.org/1999/xlink" x="0px" y="0px"
	 viewBox="0 0 322.8 58.4" style="enable-background:new 0 0 322.8 58.4;" xml:space="preserve">
	<style type="text/css">
	g {fill:#FFFFFF;}
	</style>
<g>
	<path d="M150.4,0H78.7v13h65.2v32.4H91.7V22.7h-13v22.7v13h13h58.7c3.6,0,6.5-2.9,6.5-6.5V6.5C156.9,2.9,154,0,150.4,0z"/>
	<path d="M28.3,0H6.5C2.9,0,0,2.9,0,6.5v16.2v13v16.2c0,3.6,2.9,6.5,6.5,6.5h21.8h6.5h34.8v-13H34.8h-6.5H13v-9.7h56.7v-13H13V13
		h15.3h6.5h34.8V0H34.8H28.3z"/>
	<path d="M193.7,0h-21.8c-3.6,0-6.5,2.9-6.5,6.5v16.2v13v16.2c0,3.6,2.9,6.5,6.5,6.5h21.8h6.5h34.8v-13h-34.8h-6.5h-15.3v-9.7h56.7
		v-13h-56.7V13h15.3h6.5h34.8V0h-34.8H193.7z"/>
	<path d="M309.8,0v45.4h-11.1l-20-41.7c-1.1-2.3-3.4-3.7-5.9-3.7h-15.2h-13v13v45.4h13V13h11.1l20,41.7c1.1,2.3,3.4,3.7,5.9,3.7
		h15.2h13v-13V0H309.8z"/>
</g>
</svg>
