<?xml version="1.0" encoding="utf-8"?>
<!-- Generator: Adobe Illustrator 26.0.3, SVG Export Plug-In . SVG Version: 6.00 Build 0)  -->
<svg version="1.1" id="Слой_1" xmlns="http://www.w3.org/2000/svg" xmlns:xlink="http://www.w3.org/1999/xlink" x="0px" y="0px" viewBox="0 0 100 100" style="enable-background: new 0 0 100 100" xml:space="preserve">
<style>.st0 {
  fill: #fff;
}

.st1 {
  fill: #020203;
}

.st2 {
  fill: #f18535;
}

.st3 {
  fill: #00b4d8;
}

</style>
<g>
	<g>
		<polygon class="st0" points="50,25 25,25 25,50 0,50 0,75 0,100 25,100 50,100 75,100 75,75 75,50 75,25 		"></polygon>
	</g>
	<g>
		<polygon class="st1" points="50,0 25,0 25,25 50,25 75,25 75,0 		"></polygon>
	</g>
	<g>
		<rect x="75" y="25" class="st2" width="25" height="25"></rect>
	</g>
	<g>
		<g>
			<polygon class="st3" points="0,25 0,50 25,50 25,25 25,0 0,0 			"></polygon>
		</g>
		<g>
			<polygon class="st3" points="75,75 75,100 100,100 100,75 100,50 75,50 			"></polygon>
		</g>
		<g>
			<rect x="75" y="0" class="st3" width="25" height="25"></rect>
		</g>
	</g>
</g>
</svg>
