<svg version="1.1" xmlns="http://www.w3.org/2000/svg" x="0px" y="0px"
	 viewBox="0 0 100 100" style="enable-background:new 0 0 100 100;" xml:space="preserve">
<style type="text/css">
	.st0{fill:#FFFFFF;}
	.st1{fill:#212121;}
	.st2{fill:#FF8C00;}
	.st3{fill:#00B4D8;}
</style>
		<polygon class="st0" points="50,25 25,25 25,50 0,50 0,75 0,100 25,100 50,100 75,100 75,75 75,50 75,25 		"/>
		<polygon class="st1" points="50,0 25,0 25,25 50,25 75,25 75,0 		"/>
		<rect x="75" y="25" class="st2" width="25" height="25"/>
		<polygon class="st3" points="0,25 0,50 25,50 25,25 25,0 0,0 			"/>
		<polygon class="st3" points="75,75 75,100 100,100 100,75 100,50 75,50 			"/>
		<rect x="75" y="0" class="st3" width="25" height="25"/>
</svg>
